<?xml version="1.0" ?><svg id="Layer_1" style="enable-background:new 0 0 512 512;" version="1.1" viewBox="0 0 512 512" xml:space="preserve" xmlns="http://www.w3.org/2000/svg" xmlns:xlink="http://www.w3.org/1999/xlink"><g><path d="M257.7,384.5l65.6-57.4H51.6v114.9h271.8L257.7,384.5z M131.4,388.9c0,7.3-2.3,13.2-6.9,17.8c-4.6,4.6-10.6,6.9-18,6.9   H87.1v-58.3h19.3c7.4,0,13.4,2.3,18,6.9c4.6,4.6,6.9,10.6,6.9,17.8V388.9z M190.3,389.7c0,7.1-2.2,13-6.7,17.7   c-4.5,4.7-10.3,7-17.4,7c-7,0-12.6-2.3-17-7c-4.4-4.7-6.6-10.6-6.6-17.7v-10.5c0-7.1,2.2-13,6.5-17.7c4.4-4.7,10-7,17-7   c7.1,0,12.9,2.4,17.4,7c4.5,4.7,6.7,10.6,6.7,17.7V389.7z M214.6,402c2.3,3.1,5.6,4.7,9.6,4.7c4,0,7-1,9.1-3.1   c2.1-2.1,3.1-5.1,3.1-9h9.4l0.1,0.2c0.1,5.9-1.8,10.6-5.7,14.2c-3.9,3.6-9.2,5.4-15.9,5.4c-6.8,0-12.3-2.3-16.5-6.9   c-4.2-4.6-6.3-10.4-6.3-17.6V379c0-7.1,2.1-13,6.2-17.6c4.2-4.6,9.6-6.9,16.3-6.9c6.9,0,12.3,1.7,16.2,5.2   c3.9,3.5,5.9,8.3,5.7,14.4l-0.1,0.2h-9.4c0-3.9-1.1-6.9-3.2-9c-2.1-2.1-5.2-3.1-9.3-3.1c-4,0-7.1,1.6-9.4,4.7   c-2.3,3.1-3.5,7.1-3.5,11.9v11.2C211.1,394.9,212.2,398.9,214.6,402z"/><path d="M166.2,362.5c-4.3,0-7.7,1.6-10.2,4.7c-2.5,3.1-3.7,7.1-3.7,12v10.6c0,4.9,1.2,8.9,3.7,12.1   s5.9,4.7,10.1,4.7c4.5,0,8-1.6,10.6-4.7c2.6-3.1,3.9-7.2,3.9-12.1v-10.6c0-4.9-1.3-8.9-3.9-12C174.1,364.1,170.6,362.5,166.2,362.5   z" id="XMLID_12_"/><path d="M106.4,363.1h-9.5v42.7h9.5c4.7,0,8.4-1.6,11.1-4.7c2.7-3.2,4.1-7.2,4.1-12.2V380c0-4.9-1.4-9-4.1-12.1   C114.8,364.7,111,363.1,106.4,363.1z" id="XMLID_11_"/><path d="M455.8,117.2h-27.9v-54h-63.1v54H337c-4,0-6.1,4.2-3.4,6.8l59.4,68.9c1.8,1.8,5,1.8,6.8,0l59.4-68.9   C461.9,121.3,459.8,117.2,455.8,117.2z" id="XMLID_10_"/><rect height="24.5" id="XMLID_9_" width="63.1" x="364.8" y="28.9"/><path d="M389.5,206v259.4c0,15.1-12.2,27.3-27.3,27.3H99.6c-15.1,0-27.3-12.2-27.3-27.3v-14.6H58.9v20   c0,19.5,15.8,35.4,35.4,35.4h273.2c19.5,0,35.4-15.8,35.4-35.4V206.1c-2,0.8-4.2,1.2-6.5,1.2C394,207.3,391.6,206.8,389.5,206z" id="XMLID_8_"/><path d="M72.3,81.1c0-15.1,12.2-27.3,27.3-27.3h252.1V50v-9.5H94.3c-19.5,0-35.4,15.8-35.4,35.4v242.5h13.4V81.1z" id="XMLID_7_"/><path d="M323.2,132H112.3v19.4h227.7l-16.1-18.6C323.6,132.6,323.4,132.3,323.2,132z" id="XMLID_6_"/><rect height="19.4" id="XMLID_5_" width="237.2" x="112.3" y="163.5"/><rect height="19.4" id="XMLID_4_" width="237.2" x="112.3" y="195"/><rect height="19.4" id="XMLID_3_" width="237.2" x="112.3" y="226.6"/><rect height="19.4" id="XMLID_2_" width="185.8" x="112.3" y="258.1"/><path d="M427.9,10.1c0-2.2-2-4.1-4.6-4.1h-54c-2.5,0-4.6,1.8-4.6,4.1v9h63.1V10.1z" id="XMLID_1_"/></g></svg>