<?xml version="1.0" ?><svg id="Layer_1" style="enable-background:new 0 0 512 512;" version="1.1" viewBox="0 0 512 512" xml:space="preserve" xmlns="http://www.w3.org/2000/svg" xmlns:xlink="http://www.w3.org/1999/xlink"><g><path d="M257.7,384.5l65.6-57.4H51.6v114.9h271.8L257.7,384.5z M115.1,387.8c0,5.5-1.7,9.9-5.2,13.4c-3.5,3.4-8,5.2-13.5,5.2H81.9   v-43.7h14.4c5.5,0,10.1,1.7,13.5,5.2c3.5,3.5,5.2,7.9,5.2,13.4V387.8z M159.3,388.4c0,5.3-1.7,9.8-5,13.3   c-3.4,3.5-7.7,5.3-13.1,5.3c-5.2,0-9.5-1.8-12.8-5.3c-3.3-3.5-4.9-7.9-4.9-13.3v-7.9c0-5.3,1.6-9.8,4.9-13.3   c3.3-3.5,7.5-5.3,12.8-5.3c5.3,0,9.7,1.8,13.1,5.3c3.4,3.5,5,8,5,13.3V388.4z M177.5,397.6c1.8,2.4,4.2,3.5,7.2,3.5   c3,0,5.3-0.8,6.8-2.3c1.6-1.6,2.3-3.8,2.3-6.8h7l0.1,0.2c0.1,4.4-1.4,8-4.3,10.7c-2.9,2.7-6.9,4.1-11.9,4.1   c-5.1,0-9.2-1.7-12.4-5.2c-3.2-3.4-4.7-7.8-4.7-13.2v-8.3c0-5.3,1.6-9.7,4.7-13.2c3.1-3.5,7.2-5.2,12.2-5.2c5.1,0,9.2,1.3,12.2,3.9   c3,2.6,4.4,6.2,4.3,10.8l-0.1,0.2h-7.1c0-2.9-0.8-5.2-2.4-6.7c-1.6-1.6-3.9-2.3-7-2.3c-3,0-5.3,1.2-7,3.5c-1.7,2.4-2.6,5.3-2.6,8.9   v8.4C174.8,392.3,175.7,395.3,177.5,397.6z M234.3,406.4l-9.5-16.4l-9.5,16.4h-8.7l13.8-22L207,362.6h8.6l9.1,16.2l9.2-16.2h8.7   l-13.5,21.7l14,22H234.3z"/><path d="M96.3,368.5h-7.1v32.1h7.1c3.5,0,6.3-1.2,8.4-3.6c2.1-2.4,3.1-5.4,3.1-9.1v-6.7c0-3.7-1-6.7-3.1-9.1   C102.6,369.7,99.8,368.5,96.3,368.5z" id="XMLID_12_"/><path d="M141.2,368c-3.2,0-5.8,1.2-7.6,3.5c-1.9,2.3-2.8,5.3-2.8,9v7.9c0,3.7,0.9,6.7,2.8,9.1   c1.9,2.4,4.4,3.5,7.6,3.5c3.3,0,6-1.2,7.9-3.5c1.9-2.3,2.9-5.4,2.9-9.1v-7.9c0-3.6-1-6.6-2.9-9C147.1,369.2,144.5,368,141.2,368z" id="XMLID_11_"/><path d="M455.8,117.2h-27.9v-54h-63.1v54H337c-4,0-6.1,4.2-3.4,6.8l59.4,68.9c1.8,1.8,5,1.8,6.8,0l59.4-68.9   C461.9,121.3,459.8,117.2,455.8,117.2z" id="XMLID_10_"/><rect height="24.5" id="XMLID_9_" width="63.1" x="364.8" y="28.9"/><path d="M389.5,206v259.4c0,15.1-12.2,27.3-27.3,27.3H99.6c-15.1,0-27.3-12.2-27.3-27.3v-14.6H58.9v20   c0,19.5,15.8,35.4,35.4,35.4h273.2c19.5,0,35.4-15.8,35.4-35.4V206.1c-2,0.8-4.2,1.2-6.5,1.2C394,207.3,391.6,206.8,389.5,206z" id="XMLID_8_"/><path d="M72.3,81.1c0-15.1,12.2-27.3,27.3-27.3h252.1V50v-9.5H94.3c-19.5,0-35.4,15.8-35.4,35.4v242.5h13.4V81.1z" id="XMLID_7_"/><path d="M323.2,132H112.3v19.4h227.7l-16.1-18.6C323.6,132.6,323.4,132.3,323.2,132z" id="XMLID_6_"/><rect height="19.4" id="XMLID_5_" width="237.2" x="112.3" y="163.5"/><rect height="19.4" id="XMLID_4_" width="237.2" x="112.3" y="195"/><rect height="19.4" id="XMLID_3_" width="237.2" x="112.3" y="226.6"/><rect height="19.4" id="XMLID_2_" width="185.8" x="112.3" y="258.1"/><path d="M427.9,10.1c0-2.2-2-4.1-4.6-4.1h-54c-2.5,0-4.6,1.8-4.6,4.1v9h63.1V10.1z" id="XMLID_1_"/></g></svg>