<?xml version="1.0" ?><svg id="Layer_1" style="enable-background:new 0 0 512 512;" version="1.1" viewBox="0 0 512 512" xml:space="preserve" xmlns="http://www.w3.org/2000/svg" xmlns:xlink="http://www.w3.org/1999/xlink"><g><path d="M100.8,363.1H88.1v20.6h12.6c3.6,0,6.3-1,8.1-2.9c1.8-1.9,2.7-4.4,2.7-7.3s-0.9-5.4-2.7-7.4   C107.1,364.1,104.4,363.1,100.8,363.1z" id="XMLID_15_"/><path d="M257.7,384.5l65.6-57.4H51.6v114.9h271.8L257.7,384.5z M115.9,386.6c-3.6,3.3-8.7,4.9-15.1,4.9H88.1v22.1h-9.7v-58.3h22.3   c6.4,0,11.5,1.7,15.1,5c3.6,3.3,5.5,7.7,5.5,13.1C121.3,378.9,119.5,383.3,115.9,386.6z M178.6,413.7h-9.7l-25.8-42l-0.2,0.1v41.9   h-9.7v-58.3h9.7l25.8,42l0.2-0.1v-41.9h9.7V413.7z M236.6,405.8c-1.6,2.3-4.2,4.3-7.7,6.1c-3.5,1.8-8,2.7-13.6,2.7   c-6.9,0-12.6-2.2-17-6.7s-6.7-10.2-6.7-17.2v-12.2c0-7,2.1-12.8,6.4-17.2c4.3-4.4,9.8-6.7,16.6-6.7c6.8,0,12.1,1.7,15.9,5.1   c3.8,3.4,5.6,7.9,5.5,13.4l-0.1,0.2h-9.3c0-3.3-1-5.9-3.1-7.9s-5-3-8.8-3c-4,0-7.3,1.5-9.8,4.5c-2.5,3-3.7,6.8-3.7,11.5v12.3   c0,4.7,1.3,8.6,3.9,11.6c2.6,3,5.9,4.5,10.1,4.5c3.1,0,5.6-0.4,7.4-1.1c1.8-0.7,3.2-1.6,4.1-2.6V391h-12.2v-7.3h21.9V405.8z"/><path d="M455.8,117.2h-27.9v-54h-63.1v54H337c-4,0-6.1,4.2-3.4,6.8l59.4,68.9c1.8,1.8,5,1.8,6.8,0l59.4-68.9   C461.9,121.3,459.8,117.2,455.8,117.2z" id="XMLID_10_"/><rect height="24.5" id="XMLID_9_" width="63.1" x="364.8" y="28.9"/><path d="M389.5,206v259.4c0,15.1-12.2,27.3-27.3,27.3H99.6c-15.1,0-27.3-12.2-27.3-27.3v-14.6H58.9v20   c0,19.5,15.8,35.4,35.4,35.4h273.2c19.5,0,35.4-15.8,35.4-35.4V206.1c-2,0.8-4.2,1.2-6.5,1.2C394,207.3,391.6,206.8,389.5,206z" id="XMLID_8_"/><path d="M72.3,81.1c0-15.1,12.2-27.3,27.3-27.3h252.1V50v-9.5H94.3c-19.5,0-35.4,15.8-35.4,35.4v242.5h13.4V81.1z" id="XMLID_7_"/><path d="M323.2,132H112.3v19.4h227.7l-16.1-18.6C323.6,132.6,323.4,132.3,323.2,132z" id="XMLID_6_"/><rect height="19.4" id="XMLID_5_" width="237.2" x="112.3" y="163.5"/><rect height="19.4" id="XMLID_4_" width="237.2" x="112.3" y="195"/><rect height="19.4" id="XMLID_3_" width="237.2" x="112.3" y="226.6"/><rect height="19.4" id="XMLID_2_" width="185.8" x="112.3" y="258.1"/><path d="M427.9,10.1c0-2.2-2-4.1-4.6-4.1h-54c-2.5,0-4.6,1.8-4.6,4.1v9h63.1V10.1z" id="XMLID_1_"/></g></svg>