<?xml version="1.0" ?><svg id="Layer_1" style="enable-background:new 0 0 512 512;" version="1.1" viewBox="0 0 512 512" xml:space="preserve" xmlns="http://www.w3.org/2000/svg" xmlns:xlink="http://www.w3.org/1999/xlink"><g><path d="M199.1,362.5h-13v21.2h13c3.7,0,6.5-1,8.4-3c1.9-2,2.8-4.5,2.8-7.5c0-3-0.9-5.6-2.8-7.6   C205.5,363.5,202.8,362.5,199.1,362.5z" id="XMLID_15_"/><path d="M257.7,384.5l65.6-57.4H51.6v114.9h271.8L257.7,384.5z M137,414.5H94.8v-6.3l29.3-45.7H95v-8h40.9v6l-29.4,46H137V414.5z    M160.1,414.5h-10v-60h10V414.5z M214.6,386.7c-3.8,3.4-8.9,5.1-15.6,5.1h-13v22.7h-10v-60h23c6.6,0,11.8,1.7,15.6,5.1   c3.8,3.4,5.6,7.9,5.6,13.5C220.2,378.8,218.4,383.3,214.6,386.7z"/><path d="M455.8,117.2h-27.9v-54h-63.1v54H337c-4,0-6.1,4.2-3.4,6.8l59.4,68.9c1.8,1.8,5,1.8,6.8,0l59.4-68.9   C461.9,121.3,459.8,117.2,455.8,117.2z" id="XMLID_10_"/><rect height="24.5" id="XMLID_9_" width="63.1" x="364.8" y="28.9"/><path d="M389.5,206v259.4c0,15.1-12.2,27.3-27.3,27.3H99.6c-15.1,0-27.3-12.2-27.3-27.3v-14.6H58.9v20   c0,19.5,15.8,35.4,35.4,35.4h273.2c19.5,0,35.4-15.8,35.4-35.4V206.1c-2,0.8-4.2,1.2-6.5,1.2C394,207.3,391.6,206.8,389.5,206z" id="XMLID_8_"/><path d="M72.3,81.1c0-15.1,12.2-27.3,27.3-27.3h252.1V50v-9.5H94.3c-19.5,0-35.4,15.8-35.4,35.4v242.5h13.4V81.1z" id="XMLID_7_"/><path d="M323.2,132H112.3v19.4h227.7l-16.1-18.6C323.6,132.6,323.4,132.3,323.2,132z" id="XMLID_6_"/><rect height="19.4" id="XMLID_5_" width="237.2" x="112.3" y="163.5"/><rect height="19.4" id="XMLID_4_" width="237.2" x="112.3" y="195"/><rect height="19.4" id="XMLID_3_" width="237.2" x="112.3" y="226.6"/><rect height="19.4" id="XMLID_2_" width="185.8" x="112.3" y="258.1"/><path d="M427.9,10.1c0-2.2-2-4.1-4.6-4.1h-54c-2.5,0-4.6,1.8-4.6,4.1v9h63.1V10.1z" id="XMLID_1_"/></g></svg>